PathFileType	4	(X/Y/Z)	/Users/itak/Documents/Research/Walk-IL/dataset/trc/00173_00008.trc
DataRate	CameraRate	NumFrames	NumMarkers	Units	OrigDataRate	OrigDataStartFrame	OrigNumFrames
100.000000	100.000000	4	53	mm	100.000000	539	617
Frame#	Time	RPSI			LPSI			L3			STRN			T10			C7			CLAV			RBAK			LBAK			LSHO			LUPA			LAEL			LAOL			LWTS			LWPS			LFRA			LIFD			LHPS			LHTS			RSHO			RUPA			RAEL			RAOL			RWTS			RWPS			RFRA			RIFD			RHTS			RHPS			RBHD			LFHD			RFHD			LBHD			LHIP			RHIP			RASI			LASI			LKNE			LTHI			LANK			LTIP			LTOE			LMT1			LMT5			LHEE			RKNE			RTHI			RANK			RTIP			RTOE			RMT1			RMT5			RHEE			
		X1	Y1	Z1	X2	Y2	Z2	X3	Y3	Z3	X4	Y4	Z4	X5	Y5	Z5	X6	Y6	Z6	X7	Y7	Z7	X8	Y8	Z8	X9	Y9	Z9	X10	Y10	Z10	X11	Y11	Z11	X12	Y12	Z12	X13	Y13	Z13	X14	Y14	Z14	X15	Y15	Z15	X16	Y16	Z16	X17	Y17	Z17	X18	Y18	Z18	X19	Y19	Z19	X20	Y20	Z20	X21	Y21	Z21	X22	Y22	Z22	X23	Y23	Z23	X24	Y24	Z24	X25	Y25	Z25	X26	Y26	Z26	X27	Y27	Z27	X28	Y28	Z28	X29	Y29	Z29	X30	Y30	Z30	X31	Y31	Z31	X32	Y32	Z32	X33	Y33	Z33	X34	Y34	Z34	X35	Y35	Z35	X36	Y36	Z36	X37	Y37	Z37	X38	Y38	Z38	X39	Y39	Z39	X40	Y40	Z40	X41	Y41	Z41	X42	Y42	Z42	X43	Y43	Z43	X44	Y44	Z44	X45	Y45	Z45	X46	Y46	Z46	X47	Y47	Z47	X48	Y48	Z48	X49	Y49	Z49	X50	Y50	Z50	X51	Y51	Z51	X52	Y52	Z52	X53	Y53	Z53	

540	5.39	-1242.940551757812	1069.591674804688	347.3678283691406	-1241.8642578125	1067.338256835938	223.6377258300781	-1238.5966796875	1106.47998046875	287.0091857910156	-978.483154296875	1307.738647460938	275.9617614746094	-1266.390502929688	1257.812622070312	280.7316284179688	-1207.656494140625	1529.142456054688	266.3259582519531	-1007.256103515625	1421.202880859375	266.0111694335938	-1269.608642578125	1353.107299804688	377.6537170410156	-1215.405029296875	1502.5732421875	165.5688018798828	-1140.1171875	1489.371826171875	85.24956512451172	-1174.24755859375	1356.256103515625	13.52039337158203	-1162.04541015625	1141.286865234375	-10.4912576675415	-1201.214721679688	1122.441040039062	67.08147430419922	-1038.328247070312	915.5396728515625	1.01887845993042	-1123.629028320312	890.4522705078125	-29.0860595703125	-1145.92041015625	1031.931396484375	-28.62457466125488	-1007.513916015625	731.4025268554688	13.91670227050781	-1097.698486328125	822.250244140625	-30.53410339355469	-1026.269653320312	838.4468383789062	-23.55121994018555	-1140.169555664062	1508.428833007812	445.6864624023438	-1156.184204101562	1440.545166015625	516.4009399414062	-1146.924560546875	1147.494018554688	566.741943359375	-1159.619262695312	1141.340454101562	468.8072509765625	-972.3406372070312	948.84521484375	525.185546875	-1037.868041992188	915.5263671875	575.6505126953125	-1109.70556640625	1077.543579101562	579.1533813476562	-922.9329223632812	770.3226928710938	487.354736328125	-927.931396484375	862.1910400390625	525.7957763671875	-994.1334228515625	839.0672607421875	564.0671997070312	-1152.531982421875	1690.541625976562	344.2745666503906	-1002.839172363281	1744.09716796875	195.6868286132812	-986.8814697265625	1742.991821289062	324.6019287109375	-1175.6318359375	1699.040283203125	208.5849151611328	-1144.768432617188	997.7767333984375	103.8980865478516	-1090.840698242188	1021.384826660156	471.0651245117188	-1009.575256347656	1045.792236328125	415.54345703125	-1017.469787597656	1031.768432617188	156.7704315185547	-1131.161743164062	498.147216796875	140.2169494628906	-1126.462036132812	640.87890625	112.1086196899414	-1199.564453125	39.6866569519043	142.8404541015625	-1165.140991210938	276.7870178222656	127.9552612304688	-979.7686157226562	42.58510971069336	139.30517578125	-1021.569946289062	44.21841812133789	193.7084503173828	-1096.931518554688	31.4112377166748	88.663818359375	-1241.261108398438	42.13252258300781	219.2996673583984	-1082.397583007812	522.3840942382812	462.8071899414062	-1041.520629882812	791.5128173828125	485.5114440917969	-1170.73193359375	36.5168571472168	474.6575012207031	-1072.688720703125	401.8626403808594	449.7076721191406	-944.5614013671875	43.81652069091797	449.1951599121094	-997.27734375	40.32416915893555	401.6508178710938	-1056.309814453125	36.71094131469727	513.8486328125	-1216.515747070312	35.08107757568359	404.153076171875	
541	5.4	-1242.72705078125	1069.492065429688	347.342529296875	-1241.687133789062	1067.237915039062	223.5706787109375	-1238.38232421875	1106.365478515625	287.0053405761719	-978.3267211914062	1307.767700195312	275.7919616699219	-1266.30029296875	1257.682250976562	280.5686950683594	-1207.663330078125	1529.026611328125	265.8091125488281	-1007.167358398438	1421.169921875	265.7167358398438	-1269.486694335938	1353.126708984375	377.4194946289062	-1215.343139648438	1502.338745117188	165.1202087402344	-1140.010986328125	1489.03759765625	84.82264709472656	-1174.066162109375	1355.816772460938	13.27056312561035	-1161.825805664062	1140.804931640625	-10.35110378265381	-1201.130493164062	1122.122192382812	67.19696807861328	-1038.67041015625	914.6779174804688	1.583050608634949	-1124.037475585938	889.8837890625	-28.57175254821777	-1145.976440429688	1031.40380859375	-28.33253288269043	-1008.5087890625	730.5162963867188	14.7714900970459	-1098.310913085938	821.5728759765625	-29.88840484619141	-1026.880859375	837.5606079101562	-22.88233757019043	-1140.115356445312	1508.640258789062	445.2236022949219	-1155.984985351562	1440.897705078125	516.09326171875	-1146.333984375	1147.976928710938	566.9984130859375	-1159.544311523438	1141.606567382812	469.1412658691406	-972.8411254882812	948.4125366210938	524.9710693359375	-1038.078125	915.6485595703125	576.113037109375	-1109.18359375	1077.990112304688	579.4159545898438	-925.0560302734375	769.3363647460938	487.3871765136719	-928.9568481445312	861.4435424804688	525.492431640625	-995.0008544921875	838.9507446289062	564.5018310546875	-1152.619873046875	1690.593017578125	343.53662109375	-1002.815246582031	1743.965087890625	195.0172119140625	-986.998291015625	1743.022827148438	323.9376831054688	-1175.66650390625	1698.884521484375	207.7791595458984	-1144.264282226562	997.716064453125	104.0386276245117	-1090.704833984375	1021.340637207031	471.1498718261719	-1009.439453125	1045.8662109375	415.6463317871094	-1017.074890136719	1031.750610351562	156.9221954345703	-1130.78369140625	498.1322326660156	140.3634033203125	-1126.133056640625	640.8767700195312	112.1637573242188	-1199.52392578125	39.74617004394531	142.93212890625	-1164.881103515625	276.7734680175781	128.0839080810547	-979.7286376953125	42.56695556640625	139.3214111328125	-1021.536499023438	44.17801284790039	193.7405853271484	-1096.932983398438	31.47830581665039	88.71959686279297	-1241.241455078125	42.11985015869141	219.3432769775391	-1083.064697265625	522.3854370117188	463.0289306640625	-1041.700073242188	791.53955078125	485.7415161132812	-1170.662231445312	36.56641387939453	474.6333618164062	-1073.292602539062	401.9321594238281	449.8834533691406	-944.3621826171875	43.3990592956543	449.3422546386719	-997.1439819335938	40.24772644042969	401.6669921875	-1056.277709960938	36.53174591064453	514.0020751953125	-1216.442993164062	35.16827774047852	404.1112670898438	
542	5.41	-1242.494750976562	1069.378662109375	347.3403930664062	-1241.498168945312	1067.134765625	223.5339050292969	-1238.144775390625	1106.244384765625	287.038818359375	-978.1477661132812	1307.788696289062	275.6395568847656	-1266.17333984375	1257.556884765625	280.4544372558594	-1207.650634765625	1528.920776367188	265.3260192871094	-1007.037658691406	1421.135009765625	265.431396484375	-1269.360717773438	1353.144287109375	377.2072143554688	-1215.262817382812	1502.108276367188	164.7190856933594	-1139.893188476562	1488.708618164062	84.42687225341797	-1173.908569335938	1355.371459960938	13.05723285675049	-1161.6630859375	1140.30615234375	-10.15993213653564	-1201.090698242188	1121.8037109375	67.37420654296875	-1039.043701171875	913.8494262695312	2.242451429367065	-1124.462158203125	889.2982177734375	-27.97042846679688	-1146.069213867188	1030.862548828125	-27.97227668762207	-1009.480102539062	729.6461791992188	15.75679016113281	-1098.911987304688	820.888427734375	-29.13563537597656	-1027.49755859375	836.6799926757812	-22.09723472595215	-1140.026000976562	1508.833129882812	444.7842407226562	-1155.767944335938	1441.2216796875	515.801025390625	-1145.839477539062	1148.414672851562	567.191650390625	-1159.47314453125	1141.849487304688	469.4077758789062	-973.4851684570312	947.8726196289062	524.9058837890625	-1038.5703125	915.7132568359375	576.6185302734375	-1108.798706054688	1078.3955078125	579.662353515625	-927.2521362304688	768.2631225585938	487.687744140625	-930.155029296875	860.5874633789062	525.4276123046875	-996.091552734375	838.74951171875	565.076416015625	-1152.677001953125	1690.634155273438	342.8397216796875	-1002.785034179688	1743.83154296875	194.3437805175781	-987.0843505859375	1743.057495117188	323.2685546875	-1175.677978515625	1698.714599609375	207.0048065185547	-1143.775390625	997.6507568359375	104.1907196044922	-1090.645874023438	1021.294311523438	471.2260131835938	-1009.239318847656	1045.928588867188	415.7589416503906	-1016.678894042969	1031.733154296875	157.0722808837891	-1130.346069335938	498.1176452636719	140.5247192382812	-1125.764282226562	640.874755859375	112.2197036743164	-1199.477172851562	39.81947326660156	143.0348052978516	-1164.5771484375	276.7620239257812	128.221923828125	-979.6835327148438	42.54567718505859	139.3386383056641	-1021.497802734375	44.13449859619141	193.7772064208984	-1096.934326171875	31.54729080200195	88.77692413330078	-1241.218505859375	42.10444259643555	219.3873748779297	-1083.766479492188	522.4046020507812	463.2672729492188	-1041.789916992188	791.5459594726562	485.8801879882812	-1170.604736328125	36.59764099121094	474.6197509765625	-1073.932495117188	402.013671875	450.0897521972656	-944.21484375	43.09956359863281	449.4798583984375	-997.0466918945312	40.20717620849609	401.6954345703125	-1056.263427734375	36.35860824584961	514.1517944335938	-1216.3896484375	35.24016952514648	404.080078125	
543	5.42	-1242.244018554688	1069.251953125	347.3586730957031	-1241.291137695312	1067.022583007812	223.5268249511719	-1237.887939453125	1106.114379882812	287.102783203125	-977.9512329101562	1307.799438476562	275.5061645507812	-1266.010986328125	1257.436157226562	280.3817138671875	-1207.616821289062	1528.821411132812	264.8753662109375	-1006.876037597656	1421.094360351562	265.1504821777344	-1269.231201171875	1353.155639648438	377.0123901367188	-1215.164428710938	1501.879760742188	164.3528137207031	-1139.7587890625	1488.382202148438	84.05842590332031	-1173.772216796875	1354.919555664062	12.87462902069092	-1161.559204101562	1139.79248046875	-9.923295974731445	-1201.091796875	1121.486083984375	67.60770416259766	-1039.439086914062	913.057373046875	2.995907783508301	-1124.902587890625	888.6954345703125	-27.28891181945801	-1146.191284179688	1030.308471679688	-27.54796981811523	-1010.414855957031	728.7930297851562	16.87443161010742	-1099.506469726562	820.2008666992188	-28.28530693054199	-1028.113525390625	835.8082885742188	-21.20061111450195	-1139.910522460938	1509.003784179688	444.36767578125	-1155.544921875	1441.513305664062	515.5223999023438	-1145.4443359375	1148.805541992188	567.3231811523438	-1159.404663085938	1142.070190429688	469.605224609375	-974.2665405273438	947.231201171875	524.9906005859375	-1039.337158203125	915.7197875976562	577.1638793945312	-1108.5556640625	1078.755737304688	579.8921508789062	-929.4988403320312	767.11669921875	488.2582397460938	-931.5107421875	859.63330078125	525.6073608398438	-997.4019775390625	838.461669921875	565.7784423828125	-1152.710815429688	1690.661499023438	342.1787719726562	-1002.75146484375	1743.692016601562	193.668212890625	-987.1417236328125	1743.09326171875	322.5955810546875	-1175.662475585938	1698.527954101562	206.2665710449219	-1143.305419921875	997.5804443359375	104.3477249145508	-1090.66455078125	1021.2431640625	471.289306640625	-1008.976379394531	1045.969604492188	415.8769226074219	-1016.285705566406	1031.712036132812	157.2182769775391	-1129.865478515625	498.1037902832031	140.6998291015625	-1125.360229492188	640.869140625	112.2873992919922	-1199.424682617188	39.90554046630859	143.1459655761719	-1164.244140625	276.7547607421875	128.3666229248047	-979.6344604492188	42.52206039428711	139.3569183349609	-1021.455444335938	44.08880615234375	193.8179016113281	-1096.9345703125	31.61626625061035	88.83484649658203	-1241.193115234375	42.08742523193359	219.4302368164062	-1084.493286132812	522.4415893554688	463.5174560546875	-1041.805786132812	791.5201416015625	485.9501953125	-1170.558471679688	36.61248779296875	474.6155090332031	-1074.603759765625	402.1116333007812	450.3222351074219	-944.1091918945312	42.88673782348633	449.6045837402344	-996.9776611328125	40.19164657592773	401.7328491210938	-1056.260375976562	36.19543838500977	514.29443359375	-1216.350952148438	35.29981994628906	404.057373046875	
